<?xml version="1.0" encoding="UTF-8"?>
<svg id="Layer_1" xmlns="http://www.w3.org/2000/svg" version="1.1" xmlns:xlink="http://www.w3.org/1999/xlink" viewBox="0 0 2292 1506">
  <!-- Generator: Adobe Illustrator 29.0.0, SVG Export Plug-In . SVG Version: 2.1.0 Build 186)  -->
  <defs>
    <style>
      .st0 {
        fill: url(#linear-gradient1);
      }

      .st1 {
        fill: url(#linear-gradient);
      }
    </style>
    <linearGradient id="linear-gradient" x1="711.1" y1="1312.4" x2="2058.7" y2="247.7" gradientTransform="translate(0 1506) scale(1 -1)" gradientUnits="userSpaceOnUse">
      <stop offset="0" stop-color="#ffc65d"/>
      <stop offset="1" stop-color="#9515ce"/>
    </linearGradient>
    <linearGradient id="linear-gradient1" x1="324.4" y1="822.9" x2="1671.9" y2="-241.8" gradientTransform="translate(0 1506) scale(1 -1)" gradientUnits="userSpaceOnUse">
      <stop offset="0" stop-color="#ffc65d"/>
      <stop offset="1" stop-color="#9515ce"/>
    </linearGradient>
  </defs>
  <path class="st1" d="M2217.1,921.9c0,322.1-262,584.1-584.1,584.1s-314.3-68.7-420.6-179.4c-24.4-25.6-46.8-53.3-66.4-82.8-20.3-30.7-37.8-63.2-52.1-97.3-26.3-63.2-42-131.7-44.5-203.6-.2,0-.7-.2-.9-.2.2-6.9.5-13.8.5-20.5v-113.9c-5.5.5-11.1.9-16.6,1.4-54.7,5.1-109.3,14.1-164,26.5h0c-46.1-48.4-79.3-108.8-95-176.2,47.5-12.7,95-23.1,142.7-30.9,74.5-12.2,149-18.7,223.2-18.9h12.9c74.5.2,149,6.7,223.4,18.9,46.6,7.6,93.2,17.8,139.5,30-15.4,67.3-48.7,128-94.5,176.4-53.7-12.2-107.5-21-161.4-26.1-.9,0-1.8-.2-2.8-.2-4.6-.5-9.2-.9-13.8-1.2v113.9c0,6.7.2,13.1.5,19.8,3.5,67.6,24.2,130.7,57.9,185.2,68.9,111.1,191.9,185.2,331.8,185.2,215.1,0,390.2-175,390.2-390.2s-130.7-342-305.3-380.7c-27.2-6-55.8-9.2-84.9-9.2s-74.5,5.3-109.1,15.4c-4.6-67.6-27.2-130.3-62.7-183.6-68.3-102.4-184.7-169.9-316.8-169.9s-174.8,32.1-240.3,85.8l-46.3-14.1c-57.6-17.5-117.1-27.2-177.6-29.1C784.4,93.4,953.7,0,1144.2,0s434,139.3,523.9,339.2c306,18.2,549,272.6,549,582.7Z"/>
  <path class="st0" d="M1000,1185.7c-6.5-15.2-12.2-30.7-17.5-46.3-70.1,104-189.1,172.5-323.5,172.5-215.1,0-390.2-175-390.2-390.2s129.1-340.1,302.1-380c28.4-6.5,57.6-9.9,88.1-9.9s72.2,5.1,106.1,14.5c4.8-67.6,27.4-130.3,63.2-183.6h0c-.9-.2-1.8-.5-2.8-.9-5.1-1.6-10.4-3-15.4-4.4-3-.9-6.2-1.6-9.2-2.3-2.8-.7-5.8-1.4-8.5-2.1-.5-.2-.9-.2-1.4-.2-2.5-.5-4.8-1.2-7.4-1.6-.9-.2-2.1-.5-3-.7-2.1-.5-3.9-.9-6-1.2-1.6-.5-3.2-.7-4.8-.9-4.6-.9-9.5-1.8-14.1-2.5-3.2-.5-6.5-1.2-9.7-1.6-2.5-.5-4.8-.7-7.4-.9-1.2-.2-2.5-.5-3.7-.5-5.8-.7-11.8-1.4-17.8-2.1-.7,0-1.4-.2-2.1-.2-6.2-.7-12.5-1.2-18.7-1.4-3.2-.2-6.5-.5-9.7-.5-3.2-.2-6.5-.2-9.7-.5l-7.1-.2h-11.1c-12.9,0-25.8.5-38.5,1.2C316.1,359,74.9,612.9,74.9,921.9s262,584.1,584.1,584.1,314.3-68.9,420.6-179.4c-6.5-8.8-12.5-17.5-18.4-26.5-24-36-44.5-74.5-61.1-114.4Z"/>
</svg>