<?xml version="1.0" encoding="utf-8"?>
<!-- Generator: Adobe Illustrator 26.0.1, SVG Export Plug-In . SVG Version: 6.00 Build 0)  -->
<svg version="1.1" id="Layer_1" xmlns="http://www.w3.org/2000/svg" xmlns:xlink="http://www.w3.org/1999/xlink" x="0px" y="0px"
	 viewBox="0 0 2292 1506" style="enable-background:new 0 0 2292 1506;" xml:space="preserve">
<style type="text/css">
	.st0{fill:url(#SVGID_1_);}
	.st1{fill:url(#SVGID_00000174570488453913419330000003666263466347748230_);}
</style>
<g>
	<linearGradient id="SVGID_1_" gradientUnits="userSpaceOnUse" x1="957.4316" y1="510.4374" x2="1541.812" y2="972.1425">
		<stop  offset="0" style="stop-color:#FFC65D"/>
		<stop  offset="1" style="stop-color:#9515CE"/>
	</linearGradient>
	<path class="st0" d="M1610.5,826.3c0,139.7-113.6,253.3-253.3,253.3c-71.6,0-136.3-29.8-182.4-77.8c-10.6-11.1-20.3-23.1-28.8-35.9
		c-8.8-13.3-16.4-27.4-22.6-42.2c-11.4-27.4-18.2-57.1-19.3-88.3c-0.1,0-0.3-0.1-0.4-0.1c0.1-3,0.2-6,0.2-8.9v-49.4
		c-2.4,0.2-4.8,0.4-7.2,0.6c-23.7,2.2-47.4,6.1-71.1,11.5h0c-20-21-34.4-47.2-41.2-76.4c20.6-5.5,41.2-10,61.9-13.4
		c32.3-5.3,64.6-8.1,96.8-8.2c1.9,0,3.7,0,5.6,0c32.3,0.1,64.6,2.9,96.9,8.2c20.2,3.3,40.4,7.7,60.5,13c-6.7,29.2-21.1,55.5-41,76.5
		c-23.3-5.3-46.6-9.1-70-11.3c-0.4,0-0.8-0.1-1.2-0.1c-2-0.2-4-0.4-6-0.5v49.4c0,2.9,0.1,5.7,0.2,8.6c1.5,29.3,10.5,56.7,25.1,80.3
		c29.9,48.2,83.2,80.3,143.9,80.3c93.3,0,169.2-75.9,169.2-169.2c0-80.7-56.7-148.3-132.4-165.1c-11.8-2.6-24.2-4-36.8-4
		c-16.4,0-32.3,2.3-47.3,6.7c-2-29.3-11.8-56.5-27.2-79.6c-29.6-44.4-80.1-73.7-137.4-73.7c-39.5,0-75.8,13.9-104.2,37.2l-20.1-6.1
		c-25-7.6-50.8-11.8-77-12.6c45.3-62.1,118.7-102.6,201.3-102.6c101,0,188.2,60.4,227.2,147.1
		C1505.1,581.5,1610.5,691.8,1610.5,826.3z"/>
	
		<linearGradient id="SVGID_00000092458279996052454260000010692034935121696147_" gradientUnits="userSpaceOnUse" x1="789.6669" y1="722.7772" x2="1374.0474" y2="1184.4824">
		<stop  offset="0" style="stop-color:#FFC65D"/>
		<stop  offset="1" style="stop-color:#9515CE"/>
	</linearGradient>
	<path style="fill:url(#SVGID_00000092458279996052454260000010692034935121696147_);" d="M1082.7,940.7c-2.8-6.6-5.3-13.3-7.6-20.1
		c-30.4,45.1-82,74.8-140.3,74.8c-93.3,0-169.2-75.9-169.2-169.2c0-80.2,56-147.5,131-164.8c12.3-2.8,25-4.3,38.2-4.3
		c15.9,0,31.3,2.2,46,6.3c2.1-29.3,11.9-56.5,27.4-79.6v0c-0.4-0.1-0.8-0.2-1.2-0.4c-2.2-0.7-4.5-1.3-6.7-1.9c-1.3-0.4-2.7-0.7-4-1
		c-1.2-0.3-2.5-0.6-3.7-0.9c-0.2-0.1-0.4-0.1-0.6-0.1c-1.1-0.2-2.1-0.5-3.2-0.7c-0.4-0.1-0.9-0.2-1.3-0.3c-0.9-0.2-1.7-0.4-2.6-0.5
		c-0.7-0.2-1.4-0.3-2.1-0.4c-2-0.4-4.1-0.8-6.1-1.1c-1.4-0.2-2.8-0.5-4.2-0.7c-1.1-0.2-2.1-0.3-3.2-0.4c-0.5-0.1-1.1-0.2-1.6-0.2
		c-2.5-0.3-5.1-0.6-7.7-0.9c-0.3,0-0.6-0.1-0.9-0.1c-2.7-0.3-5.4-0.5-8.1-0.6c-1.4-0.1-2.8-0.2-4.2-0.2c-1.4-0.1-2.8-0.1-4.2-0.2
		l-3.1-0.1h-0.3c-1.5,0-3,0-4.5,0c-5.6,0-11.2,0.2-16.7,0.5c-131.9,8.6-236.5,118.7-236.5,252.7c0,139.7,113.6,253.3,253.3,253.3
		c71.6,0,136.3-29.9,182.4-77.8c-2.8-3.8-5.4-7.6-8-11.5C1098.8,974.7,1089.9,958,1082.7,940.7z"/>
</g>
</svg>
